G75*
%MOIN*%
%OFA0B0*%
%FSLAX25Y25*%
%IPPOS*%
%LPD*%
%AMOC8*
5,1,8,0,0,1.08239X$1,22.5*
%
%ADD10C,0.00000*%
%ADD11R,0.04724X0.04724*%
%ADD12OC8,0.08500*%
%ADD13R,0.04724X0.03150*%
%ADD14R,0.09449X0.07087*%
%ADD15R,0.07087X0.09449*%
%ADD16C,0.01000*%
%ADD17C,0.03600*%
D10*
X0002907Y0002712D02*
X0002907Y0040114D01*
X0093458Y0040114D01*
X0093458Y0002712D01*
X0002907Y0002712D01*
D11*
X0006647Y0036177D03*
X0014915Y0036177D03*
X0022395Y0036177D03*
X0030663Y0036177D03*
X0065702Y0036177D03*
X0073970Y0036177D03*
X0081450Y0036177D03*
X0089718Y0036177D03*
D12*
X0054088Y0034208D03*
X0042277Y0034208D03*
X0048182Y0010586D03*
D13*
X0034403Y0020823D03*
X0024560Y0020823D03*
X0024560Y0027909D03*
X0034403Y0027909D03*
X0061962Y0027909D03*
X0071804Y0027909D03*
X0071804Y0020823D03*
X0061962Y0020823D03*
D14*
X0085584Y0024464D03*
X0085584Y0008519D03*
X0010781Y0008519D03*
X0010781Y0024464D03*
D15*
X0022493Y0010586D03*
X0038438Y0010586D03*
X0057926Y0010586D03*
X0073871Y0010586D03*
D16*
X0074007Y0010081D01*
X0074907Y0009181D01*
X0084807Y0009181D01*
X0085584Y0008519D01*
X0073871Y0010586D02*
X0073107Y0010981D01*
X0073107Y0012781D01*
X0068607Y0017281D01*
X0071307Y0019981D01*
X0071804Y0020823D01*
X0068607Y0017281D02*
X0054207Y0017281D01*
X0051507Y0019981D01*
X0034407Y0019981D01*
X0034403Y0020823D01*
X0029907Y0024481D02*
X0025407Y0019981D01*
X0024560Y0020823D01*
X0024507Y0019981D01*
X0024507Y0012781D01*
X0022707Y0010981D01*
X0022493Y0010586D01*
X0021807Y0010081D01*
X0020907Y0009181D01*
X0011007Y0009181D01*
X0010781Y0008519D01*
X0038438Y0010586D02*
X0038907Y0010981D01*
X0047907Y0010981D01*
X0048182Y0010586D01*
X0048807Y0010981D01*
X0057807Y0010981D01*
X0057926Y0010586D01*
X0061407Y0020881D02*
X0053307Y0020881D01*
X0049707Y0024481D01*
X0029907Y0024481D01*
X0027207Y0024481D02*
X0029907Y0027181D01*
X0033507Y0027181D01*
X0034403Y0027909D01*
X0027207Y0024481D02*
X0021807Y0024481D01*
X0015507Y0030781D01*
X0015507Y0035281D01*
X0014915Y0036177D01*
X0022395Y0036177D02*
X0022707Y0035281D01*
X0022707Y0029881D01*
X0024507Y0028081D01*
X0024560Y0027909D01*
X0019107Y0021781D02*
X0017307Y0023581D01*
X0011007Y0023581D01*
X0010781Y0024464D01*
X0010107Y0024481D01*
X0007407Y0027181D01*
X0007407Y0035281D01*
X0006647Y0036177D01*
X0030663Y0036177D02*
X0030807Y0035281D01*
X0040707Y0035281D01*
X0041607Y0034381D01*
X0042277Y0034208D01*
X0042507Y0033481D01*
X0047907Y0028081D01*
X0056007Y0028081D01*
X0059607Y0024481D01*
X0084807Y0024481D01*
X0085584Y0024464D01*
X0080941Y0030271D02*
X0078612Y0027942D01*
X0071837Y0027942D01*
X0071804Y0027909D01*
X0065907Y0028081D02*
X0073107Y0035281D01*
X0073970Y0036177D01*
X0077022Y0031186D02*
X0081207Y0035281D01*
X0081450Y0036177D01*
X0085584Y0030271D02*
X0089718Y0034405D01*
X0089718Y0036177D01*
X0085584Y0030271D02*
X0080941Y0030271D01*
X0065907Y0028081D02*
X0062307Y0028081D01*
X0061962Y0027909D01*
X0056007Y0028081D02*
X0063207Y0035281D01*
X0065007Y0035281D01*
X0065702Y0036177D01*
X0061962Y0020823D02*
X0061407Y0020881D01*
D17*
X0077022Y0031186D03*
X0019107Y0021781D03*
M02*
