G75*
%MOIN*%
%OFA0B0*%
%FSLAX25Y25*%
%IPPOS*%
%LPD*%
%AMOC8*
5,1,8,0,0,1.08239X$1,22.5*
%
%ADD10C,0.00000*%
%ADD11C,0.00100*%
%ADD12R,0.01181X0.00591*%
%ADD13R,0.01181X0.01181*%
%ADD14C,0.00600*%
%ADD15C,0.00800*%
%ADD16R,0.09646X0.02657*%
%ADD17C,0.00400*%
%ADD18R,0.02657X0.09646*%
D10*
X0002907Y0002712D02*
X0002907Y0040114D01*
X0093458Y0040114D01*
X0093458Y0002712D01*
X0002907Y0002712D01*
D11*
X0003300Y0003050D02*
X0003801Y0003050D01*
X0004051Y0003300D01*
X0004523Y0003050D02*
X0005024Y0003050D01*
X0004773Y0003050D02*
X0004773Y0004551D01*
X0004523Y0004551D01*
X0004051Y0004301D02*
X0003801Y0004551D01*
X0003300Y0004551D01*
X0003050Y0004301D01*
X0003050Y0003300D01*
X0003300Y0003050D01*
X0005505Y0003300D02*
X0005756Y0003550D01*
X0006506Y0003550D01*
X0006506Y0003801D02*
X0006506Y0003050D01*
X0005756Y0003050D01*
X0005505Y0003300D01*
X0005756Y0004051D02*
X0006256Y0004051D01*
X0006506Y0003801D01*
X0006979Y0003801D02*
X0007229Y0003550D01*
X0007729Y0003550D01*
X0007980Y0003300D01*
X0007729Y0003050D01*
X0006979Y0003050D01*
X0008452Y0003050D02*
X0009203Y0003050D01*
X0009453Y0003300D01*
X0009203Y0003550D01*
X0008702Y0003550D01*
X0008452Y0003801D01*
X0008702Y0004051D01*
X0009453Y0004051D01*
X0007980Y0004051D02*
X0007229Y0004051D01*
X0006979Y0003801D01*
X0011398Y0003801D02*
X0012399Y0003801D01*
X0012872Y0004301D02*
X0013122Y0004551D01*
X0013622Y0004551D01*
X0013873Y0004301D01*
X0013873Y0004051D01*
X0013622Y0003801D01*
X0013873Y0003550D01*
X0013873Y0003300D01*
X0013622Y0003050D01*
X0013122Y0003050D01*
X0012872Y0003300D01*
X0013372Y0003801D02*
X0013622Y0003801D01*
X0012149Y0004551D02*
X0012149Y0003050D01*
X0011398Y0003801D02*
X0012149Y0004551D01*
X0015818Y0004551D02*
X0015818Y0003050D01*
X0016819Y0003050D02*
X0016819Y0004551D01*
X0017291Y0004301D02*
X0017291Y0004051D01*
X0017542Y0003801D01*
X0018042Y0003801D01*
X0018292Y0003550D01*
X0018292Y0003300D01*
X0018042Y0003050D01*
X0017542Y0003050D01*
X0017291Y0003300D01*
X0016819Y0003801D02*
X0015818Y0003801D01*
X0017291Y0004301D02*
X0017542Y0004551D01*
X0018042Y0004551D01*
X0018292Y0004301D01*
X0018765Y0004551D02*
X0019766Y0004551D01*
X0019265Y0004551D02*
X0019265Y0003050D01*
X0021711Y0003050D02*
X0022212Y0003050D01*
X0021961Y0003050D02*
X0021961Y0004551D01*
X0021711Y0004551D01*
X0022693Y0004051D02*
X0022944Y0004051D01*
X0022944Y0003050D01*
X0023194Y0003050D02*
X0022693Y0003050D01*
X0023676Y0003300D02*
X0023926Y0003050D01*
X0024676Y0003050D01*
X0024676Y0002800D02*
X0024426Y0002550D01*
X0024176Y0002550D01*
X0024676Y0002800D02*
X0024676Y0004051D01*
X0023926Y0004051D01*
X0023676Y0003801D01*
X0023676Y0003300D01*
X0025149Y0003050D02*
X0025149Y0004551D01*
X0025399Y0004051D02*
X0025899Y0004051D01*
X0026150Y0003801D01*
X0026150Y0003050D01*
X0026872Y0003300D02*
X0027122Y0003050D01*
X0026872Y0003300D02*
X0026872Y0004301D01*
X0026622Y0004051D02*
X0027122Y0004051D01*
X0027604Y0004051D02*
X0027854Y0004051D01*
X0027854Y0003050D01*
X0027604Y0003050D02*
X0028105Y0003050D01*
X0028586Y0003050D02*
X0028586Y0004051D01*
X0029337Y0004051D01*
X0029587Y0003801D01*
X0029587Y0003050D01*
X0030060Y0003300D02*
X0030310Y0003050D01*
X0031061Y0003050D01*
X0031061Y0002800D02*
X0031061Y0004051D01*
X0030310Y0004051D01*
X0030060Y0003801D01*
X0030060Y0003300D01*
X0030560Y0002550D02*
X0030810Y0002550D01*
X0031061Y0002800D01*
X0033006Y0003300D02*
X0033256Y0003050D01*
X0034007Y0003050D01*
X0034007Y0004051D01*
X0034479Y0004051D02*
X0035230Y0004051D01*
X0035480Y0003801D01*
X0035480Y0003300D01*
X0035230Y0003050D01*
X0034479Y0003050D01*
X0034479Y0002550D02*
X0034479Y0004051D01*
X0033006Y0004051D02*
X0033006Y0003300D01*
X0035953Y0003300D02*
X0036203Y0003050D01*
X0036954Y0003050D01*
X0036954Y0002800D02*
X0036703Y0002550D01*
X0036453Y0002550D01*
X0036954Y0002800D02*
X0036954Y0004051D01*
X0036203Y0004051D01*
X0035953Y0003801D01*
X0035953Y0003300D01*
X0037426Y0003050D02*
X0037426Y0004051D01*
X0037926Y0004051D02*
X0037426Y0003550D01*
X0037926Y0004051D02*
X0038177Y0004051D01*
X0038904Y0004051D02*
X0039404Y0004051D01*
X0039654Y0003801D01*
X0039654Y0003050D01*
X0038904Y0003050D01*
X0038654Y0003300D01*
X0038904Y0003550D01*
X0039654Y0003550D01*
X0040127Y0003300D02*
X0040377Y0003050D01*
X0041128Y0003050D01*
X0041128Y0004551D01*
X0041964Y0005298D02*
X0042714Y0005298D01*
X0042964Y0005048D01*
X0042964Y0004047D01*
X0042714Y0003797D01*
X0041964Y0003797D01*
X0041964Y0005298D01*
X0043437Y0005048D02*
X0043437Y0004047D01*
X0043687Y0003797D01*
X0044187Y0003797D01*
X0044438Y0004047D01*
X0044547Y0004051D02*
X0045297Y0004051D01*
X0045547Y0003801D01*
X0045547Y0003300D01*
X0045297Y0003050D01*
X0044547Y0003050D01*
X0044547Y0004551D01*
X0044438Y0005048D02*
X0044187Y0005298D01*
X0043687Y0005298D01*
X0043437Y0005048D01*
X0044910Y0005048D02*
X0044910Y0004047D01*
X0045160Y0003797D01*
X0045661Y0003797D01*
X0045911Y0004047D01*
X0046020Y0003801D02*
X0046020Y0003300D01*
X0046270Y0003050D01*
X0046771Y0003050D01*
X0047021Y0003300D01*
X0047021Y0003801D01*
X0046771Y0004051D01*
X0046270Y0004051D01*
X0046020Y0003801D01*
X0047493Y0003300D02*
X0047743Y0003050D01*
X0048494Y0003050D01*
X0048494Y0003801D01*
X0048244Y0004051D01*
X0047743Y0004051D01*
X0047857Y0004047D02*
X0048107Y0003797D01*
X0048607Y0003797D01*
X0048857Y0004047D01*
X0048966Y0004051D02*
X0048966Y0003050D01*
X0048966Y0003550D02*
X0049467Y0004051D01*
X0049717Y0004051D01*
X0049580Y0003797D02*
X0049330Y0004047D01*
X0049330Y0004548D01*
X0049580Y0004798D01*
X0050080Y0004798D01*
X0050331Y0004548D01*
X0050331Y0004047D01*
X0050080Y0003797D01*
X0049580Y0003797D01*
X0050194Y0003801D02*
X0050194Y0003300D01*
X0050444Y0003050D01*
X0051195Y0003050D01*
X0051195Y0004551D01*
X0051303Y0004548D02*
X0051554Y0004798D01*
X0051804Y0004548D01*
X0051804Y0003797D01*
X0052276Y0003797D02*
X0052276Y0004798D01*
X0052527Y0004798D01*
X0052777Y0004548D01*
X0053027Y0004798D01*
X0053277Y0004548D01*
X0053277Y0003797D01*
X0052777Y0003797D02*
X0052777Y0004548D01*
X0053750Y0004548D02*
X0053750Y0004047D01*
X0054000Y0003797D01*
X0054500Y0003797D01*
X0054750Y0004047D01*
X0054750Y0004548D01*
X0054500Y0004798D01*
X0054000Y0004798D01*
X0053750Y0004548D01*
X0055223Y0004798D02*
X0055223Y0003797D01*
X0056224Y0003797D02*
X0056224Y0004548D01*
X0055973Y0004798D01*
X0055223Y0004798D01*
X0051303Y0004548D02*
X0051303Y0003797D01*
X0051195Y0004051D02*
X0050444Y0004051D01*
X0050194Y0003801D01*
X0050803Y0003797D02*
X0050803Y0004798D01*
X0051053Y0004798D01*
X0051303Y0004548D01*
X0048857Y0005048D02*
X0048607Y0005298D01*
X0048107Y0005298D01*
X0047857Y0005048D01*
X0047857Y0004047D01*
X0047743Y0003550D02*
X0048494Y0003550D01*
X0047743Y0003550D02*
X0047493Y0003300D01*
X0045911Y0005048D02*
X0045661Y0005298D01*
X0045160Y0005298D01*
X0044910Y0005048D01*
X0042601Y0003801D02*
X0042351Y0004051D01*
X0041850Y0004051D01*
X0041600Y0003801D01*
X0041600Y0003300D01*
X0041850Y0003050D01*
X0042351Y0003050D01*
X0042601Y0003550D02*
X0041600Y0003550D01*
X0041128Y0004051D02*
X0040377Y0004051D01*
X0040127Y0003801D01*
X0040127Y0003300D01*
X0042601Y0003550D02*
X0042601Y0003801D01*
X0027854Y0004551D02*
X0027854Y0004801D01*
X0025399Y0004051D02*
X0025149Y0003801D01*
X0022944Y0004551D02*
X0022944Y0004801D01*
X0024676Y0016971D02*
X0024676Y0018473D01*
X0025427Y0018473D01*
X0025677Y0018222D01*
X0025677Y0017722D01*
X0025427Y0017472D01*
X0024676Y0017472D01*
X0025176Y0017472D02*
X0025677Y0016971D01*
X0026149Y0016971D02*
X0027150Y0016971D01*
X0026650Y0016971D02*
X0026650Y0018473D01*
X0026149Y0017972D01*
X0032795Y0018423D02*
X0032795Y0016922D01*
X0032795Y0017422D02*
X0033545Y0017422D01*
X0033796Y0017673D01*
X0033796Y0018173D01*
X0033545Y0018423D01*
X0032795Y0018423D01*
X0033295Y0017422D02*
X0033796Y0016922D01*
X0034268Y0017172D02*
X0034518Y0016922D01*
X0035019Y0016922D01*
X0035269Y0017172D01*
X0035269Y0017422D01*
X0035019Y0017673D01*
X0034768Y0017673D01*
X0035019Y0017673D02*
X0035269Y0017923D01*
X0035269Y0018173D01*
X0035019Y0018423D01*
X0034518Y0018423D01*
X0034268Y0018173D01*
X0037484Y0027516D02*
X0037985Y0028016D01*
X0038485Y0027516D01*
X0038485Y0029017D01*
X0038958Y0029017D02*
X0038958Y0027516D01*
X0039958Y0027516D02*
X0039958Y0028267D01*
X0039708Y0028517D01*
X0039208Y0028517D01*
X0038958Y0028267D01*
X0040431Y0028517D02*
X0040681Y0028517D01*
X0040681Y0027516D01*
X0040431Y0027516D02*
X0040931Y0027516D01*
X0041663Y0027766D02*
X0041913Y0027516D01*
X0041663Y0027766D02*
X0041663Y0028767D01*
X0041413Y0028517D02*
X0041913Y0028517D01*
X0042395Y0028267D02*
X0042645Y0028517D01*
X0043146Y0028517D01*
X0043396Y0028267D01*
X0043396Y0028016D01*
X0042395Y0028016D01*
X0042395Y0027766D02*
X0042395Y0028267D01*
X0042395Y0027766D02*
X0042645Y0027516D01*
X0043146Y0027516D01*
X0045342Y0027766D02*
X0045342Y0028767D01*
X0045592Y0029017D01*
X0046092Y0029017D01*
X0046342Y0028767D01*
X0046342Y0027766D01*
X0046092Y0027516D01*
X0045592Y0027516D01*
X0045342Y0027766D01*
X0046815Y0027766D02*
X0047065Y0027516D01*
X0047816Y0027516D01*
X0047816Y0028517D01*
X0048288Y0028517D02*
X0048789Y0028517D01*
X0048538Y0028767D02*
X0048538Y0027766D01*
X0048789Y0027516D01*
X0050082Y0027609D02*
X0050082Y0029111D01*
X0050833Y0029111D01*
X0051083Y0028860D01*
X0051083Y0028360D01*
X0050833Y0028110D01*
X0050082Y0028110D01*
X0050583Y0028110D02*
X0051083Y0027609D01*
X0051555Y0027860D02*
X0051555Y0028360D01*
X0051806Y0028610D01*
X0052306Y0028610D01*
X0052556Y0028360D01*
X0052556Y0028110D01*
X0051555Y0028110D01*
X0051555Y0027860D02*
X0051806Y0027609D01*
X0052306Y0027609D01*
X0053029Y0027860D02*
X0053029Y0028360D01*
X0053279Y0028610D01*
X0054030Y0028610D01*
X0054030Y0029111D02*
X0054030Y0027609D01*
X0053279Y0027609D01*
X0053029Y0027860D01*
X0055975Y0027860D02*
X0055975Y0028860D01*
X0056225Y0029111D01*
X0056726Y0029111D01*
X0056976Y0028860D01*
X0056976Y0027860D01*
X0056726Y0027609D01*
X0056225Y0027609D01*
X0055975Y0027860D01*
X0057448Y0027860D02*
X0057699Y0027609D01*
X0058449Y0027609D01*
X0058449Y0028610D01*
X0058922Y0028610D02*
X0059422Y0028610D01*
X0059172Y0028860D02*
X0059172Y0027860D01*
X0059422Y0027609D01*
X0057448Y0027860D02*
X0057448Y0028610D01*
X0067253Y0031625D02*
X0067253Y0033126D01*
X0068254Y0033126D02*
X0068254Y0031625D01*
X0067753Y0032125D01*
X0067253Y0031625D01*
X0068726Y0031625D02*
X0068726Y0033126D01*
X0068976Y0032626D02*
X0069477Y0032626D01*
X0069727Y0032375D01*
X0069727Y0031625D01*
X0070199Y0031625D02*
X0070700Y0031625D01*
X0070449Y0031625D02*
X0070449Y0032626D01*
X0070199Y0032626D01*
X0070449Y0033126D02*
X0070449Y0033376D01*
X0071181Y0032626D02*
X0071682Y0032626D01*
X0071432Y0032876D02*
X0071432Y0031875D01*
X0071682Y0031625D01*
X0072164Y0031875D02*
X0072164Y0032375D01*
X0072414Y0032626D01*
X0072914Y0032626D01*
X0073164Y0032375D01*
X0073164Y0032125D01*
X0072164Y0032125D01*
X0072164Y0031875D02*
X0072414Y0031625D01*
X0072914Y0031625D01*
X0068976Y0032626D02*
X0068726Y0032375D01*
X0083023Y0032032D02*
X0083774Y0032032D01*
X0084024Y0032282D01*
X0084024Y0032782D01*
X0083774Y0033033D01*
X0083023Y0033033D01*
X0083023Y0031531D01*
X0083524Y0032032D02*
X0084024Y0031531D01*
X0084497Y0031782D02*
X0084497Y0032282D01*
X0084747Y0032532D01*
X0085247Y0032532D01*
X0085497Y0032282D01*
X0085497Y0032032D01*
X0084497Y0032032D01*
X0084497Y0031782D02*
X0084747Y0031531D01*
X0085247Y0031531D01*
X0085970Y0031782D02*
X0085970Y0032282D01*
X0086220Y0032532D01*
X0086971Y0032532D01*
X0086971Y0033033D02*
X0086971Y0031531D01*
X0086220Y0031531D01*
X0085970Y0031782D01*
X0073278Y0018777D02*
X0072528Y0018027D01*
X0073529Y0018027D01*
X0072055Y0018027D02*
X0072055Y0018527D01*
X0071805Y0018777D01*
X0071055Y0018777D01*
X0071055Y0017276D01*
X0071555Y0017776D02*
X0072055Y0017276D01*
X0073278Y0017276D02*
X0073278Y0018777D01*
X0072055Y0018027D02*
X0071805Y0017776D01*
X0071055Y0017776D01*
X0063148Y0017418D02*
X0062148Y0017418D01*
X0063148Y0018419D01*
X0063148Y0018669D01*
X0062898Y0018919D01*
X0062398Y0018919D01*
X0062148Y0018669D01*
X0061675Y0018669D02*
X0061675Y0018169D01*
X0061425Y0017919D01*
X0060674Y0017919D01*
X0061175Y0017919D02*
X0061675Y0017418D01*
X0060674Y0017418D02*
X0060674Y0018919D01*
X0061425Y0018919D01*
X0061675Y0018669D01*
X0046815Y0027766D02*
X0046815Y0028517D01*
X0040681Y0029017D02*
X0040681Y0029267D01*
X0037484Y0029017D02*
X0037484Y0027516D01*
X0029708Y0031531D02*
X0029208Y0031531D01*
X0028957Y0031782D01*
X0028957Y0032282D01*
X0029208Y0032532D01*
X0029708Y0032532D01*
X0029958Y0032282D01*
X0029958Y0032032D01*
X0028957Y0032032D01*
X0028476Y0031531D02*
X0028225Y0031782D01*
X0028225Y0032782D01*
X0027975Y0032532D02*
X0028476Y0032532D01*
X0027243Y0032532D02*
X0027243Y0031531D01*
X0026993Y0031531D02*
X0027493Y0031531D01*
X0026521Y0031531D02*
X0026521Y0032282D01*
X0026270Y0032532D01*
X0025770Y0032532D01*
X0025520Y0032282D01*
X0026993Y0032532D02*
X0027243Y0032532D01*
X0027243Y0033033D02*
X0027243Y0033283D01*
X0025520Y0033033D02*
X0025520Y0031531D01*
X0025047Y0031531D02*
X0025047Y0033033D01*
X0024047Y0033033D02*
X0024047Y0031531D01*
X0024547Y0032032D01*
X0025047Y0031531D01*
X0012970Y0031531D02*
X0012219Y0031531D01*
X0011969Y0031782D01*
X0011969Y0032282D01*
X0012219Y0032532D01*
X0012970Y0032532D01*
X0012970Y0033033D02*
X0012970Y0031531D01*
X0011496Y0032032D02*
X0010496Y0032032D01*
X0010496Y0031782D02*
X0010496Y0032282D01*
X0010746Y0032532D01*
X0011246Y0032532D01*
X0011496Y0032282D01*
X0011496Y0032032D01*
X0011246Y0031531D02*
X0010746Y0031531D01*
X0010496Y0031782D01*
X0010023Y0031531D02*
X0009523Y0032032D01*
X0009773Y0032032D02*
X0009022Y0032032D01*
X0009022Y0031531D02*
X0009022Y0033033D01*
X0009773Y0033033D01*
X0010023Y0032782D01*
X0010023Y0032282D01*
X0009773Y0032032D01*
D12*
X0010190Y0033815D03*
X0010190Y0038539D03*
X0027119Y0038539D03*
X0027119Y0033815D03*
X0069245Y0033815D03*
X0069245Y0038539D03*
X0084993Y0038539D03*
X0084993Y0033815D03*
D13*
X0084993Y0036177D03*
X0069245Y0036177D03*
X0027119Y0036177D03*
X0010190Y0036177D03*
D14*
X0022198Y0025547D02*
X0022198Y0023185D01*
X0026922Y0023185D02*
X0026922Y0025547D01*
X0032041Y0025547D02*
X0032041Y0023185D01*
X0036765Y0023185D02*
X0036765Y0025547D01*
X0037777Y0029708D02*
X0039777Y0029708D01*
X0037777Y0029708D02*
X0037777Y0031708D01*
X0044777Y0029708D02*
X0046777Y0029708D01*
X0046777Y0031708D01*
X0049588Y0031708D02*
X0049588Y0029708D01*
X0051588Y0029708D01*
X0056588Y0029708D02*
X0058588Y0029708D01*
X0058588Y0031708D01*
X0058588Y0036708D02*
X0058588Y0038708D01*
X0056588Y0038708D01*
X0051588Y0038708D02*
X0049588Y0038708D01*
X0049588Y0036708D01*
X0046777Y0036708D02*
X0046777Y0038708D01*
X0044777Y0038708D01*
X0039777Y0038708D02*
X0037777Y0038708D01*
X0037777Y0036708D01*
X0059600Y0025547D02*
X0059600Y0023185D01*
X0064324Y0023185D02*
X0064324Y0025547D01*
X0069442Y0025547D02*
X0069442Y0023185D01*
X0074167Y0023185D02*
X0074167Y0025547D01*
X0052682Y0015086D02*
X0050682Y0015086D01*
X0052682Y0015086D02*
X0052682Y0013086D01*
X0045682Y0015086D02*
X0043682Y0015086D01*
X0043682Y0013086D01*
X0043682Y0008086D02*
X0043682Y0006086D01*
X0045682Y0006086D01*
X0050682Y0006086D02*
X0052682Y0006086D01*
X0052682Y0008086D01*
D15*
X0061863Y0005468D02*
X0069974Y0005468D01*
X0080466Y0012417D02*
X0080466Y0020527D01*
X0090702Y0020527D02*
X0090702Y0012417D01*
X0069974Y0015704D02*
X0061863Y0015704D01*
X0034501Y0015704D02*
X0026391Y0015704D01*
X0015899Y0012417D02*
X0015899Y0020527D01*
X0005663Y0020527D02*
X0005663Y0012417D01*
X0026391Y0005468D02*
X0034501Y0005468D01*
D16*
X0010781Y0013628D03*
X0085584Y0013628D03*
D17*
X0085157Y0015626D02*
X0088227Y0018695D01*
X0088227Y0019462D01*
X0087459Y0020229D01*
X0085925Y0020229D01*
X0085157Y0019462D01*
X0083623Y0019462D02*
X0082855Y0020229D01*
X0080553Y0020229D01*
X0080553Y0015626D01*
X0082855Y0015626D01*
X0083623Y0016393D01*
X0083623Y0019462D01*
X0085157Y0015626D02*
X0088227Y0015626D01*
X0066877Y0012682D02*
X0066877Y0011147D01*
X0066110Y0010380D01*
X0064575Y0011915D02*
X0064575Y0012682D01*
X0065343Y0013449D01*
X0066110Y0013449D01*
X0066877Y0012682D01*
X0064575Y0012682D02*
X0063808Y0013449D01*
X0063041Y0013449D01*
X0062273Y0012682D01*
X0062273Y0011147D01*
X0063041Y0010380D01*
X0063041Y0008845D02*
X0062273Y0008078D01*
X0062273Y0005776D01*
X0066877Y0005776D01*
X0066877Y0008078D01*
X0066110Y0008845D01*
X0063041Y0008845D01*
X0034102Y0008692D02*
X0034102Y0006390D01*
X0029498Y0006390D01*
X0029498Y0008692D01*
X0030266Y0009460D01*
X0033335Y0009460D01*
X0034102Y0008692D01*
X0031800Y0010994D02*
X0031800Y0014064D01*
X0029498Y0013296D02*
X0031800Y0010994D01*
X0034102Y0013296D02*
X0029498Y0013296D01*
X0013946Y0015570D02*
X0010877Y0015570D01*
X0012412Y0015570D02*
X0012412Y0020174D01*
X0010877Y0018640D01*
X0009342Y0019407D02*
X0008575Y0020174D01*
X0006273Y0020174D01*
X0006273Y0015570D01*
X0008575Y0015570D01*
X0009342Y0016338D01*
X0009342Y0019407D01*
D18*
X0027602Y0010586D03*
X0068763Y0010586D03*
M02*
